# xmcd
#
# Track frame offsets:
#	182
#	16220
#	28920
#	41865
#	53170
#	64397
#	74285
#	88545
#	102872
#	113232
#	138802
#	153260
#	166860
#	179230
#	193700
#	210755
#	223077
#
# Disc length: 3140
#
# Revision: 1
# Processed by: cddbd v1.5.1PL0 Copyright (c) Steve Scherf et al.
# Submitted via: dBpowerAMP V4.0
# Normalized: r0:TDELIM( - )
#
DISCID=f10c4211
DTITLE=Various Artist - Romantic Favourites
DYEAR=1900
DGENRE=Blues
TTITLE0=The Righteous Brohters - Unchained Melody
TTITLE1=Gene Pitney - Only Love Can Break A Heart
TTITLE2=Ray Peterson - Tell Laura I Love Her
TTITLE3=Vic Dana - Red Roses For A Blue Lady
TTITLE4=The Cascades - Rhythm Of The Rain
TTITLE5=Johnny Tillotson - Without You
TTITLE6=B.J. Thomas - I Just Can't Help
TTITLE7=Engelbert Humperdinck - Spanish Eyes
TTITLE8=Bobby Vee - Devil Or Angel
TTITLE9=James Brown - For Your Precious Love
TTITLE10=Otis Redding - I've Been Loving You Too Long(To Stop Now)
TTITLE11=Engelbert Humperdinck - By The Time I Get Phoenix
TTITLE12=Skeeter Davis - The End Of The World
TTITLE13=Roy Orbison - Crawling' Back
TTITLE14=Donovan - Living For The Love Light In Your Eyes
TTITLE15=Sam Cooke - You Send Me
TTITLE16=Dionne Warwick - Let It Be Me
EXTD=
EXTT0=
EXTT1=
EXTT2=
EXTT3=
EXTT4=
EXTT5=
EXTT6=
EXTT7=
EXTT8=
EXTT9=
EXTT10=
EXTT11=
EXTT12=
EXTT13=
EXTT14=
EXTT15=
EXTT16=
PLAYORDER=
